<?xml version="1.0" encoding="UTF-8" standalone="no"?>
<!-- Created with Inkscape (http://www.inkscape.org/) -->
<svg width="512" height="512" viewBox="0 0 135.46667 135.46667" version="1.1" id="svg5" inkscape:version="1.1 (ce6663b3b7, 2021-05-25)" sodipodi:docname="affini logo 2.5 just base.svg" inkscape:export-filename="/home/amelia/Writing/Human Domestication/affini logo 2.5 icon quintshape.png" inkscape:export-xdpi="96" inkscape:export-ydpi="96" xmlns:inkscape="http://www.inkscape.org/namespaces/inkscape" xmlns:sodipodi="http://sodipodi.sourceforge.net/DTD/sodipodi-0.dtd" xmlns="http://www.w3.org/2000/svg" xmlns:svg="http://www.w3.org/2000/svg">
  <sodipodi:namedview id="namedview7" pagecolor="#505050" bordercolor="#ffffff" borderopacity="1" inkscape:pageshadow="0" inkscape:pageopacity="0" inkscape:pagecheckerboard="1" inkscape:document-units="px" showgrid="false" inkscape:snap-page="true" inkscape:snap-bbox="true" inkscape:bbox-nodes="true" showguides="false" inkscape:guide-bbox="true" inkscape:snap-center="true" inkscape:snap-intersection-paths="true" inkscape:snap-object-midpoints="true" inkscape:zoom="1.4142136" inkscape:cx="236.17366" inkscape:cy="243.24473" inkscape:window-width="1920" inkscape:window-height="1020" inkscape:window-x="0" inkscape:window-y="0" inkscape:window-maximized="1" inkscape:current-layer="layer1" inkscape:snap-smooth-nodes="true" inkscape:object-paths="true" inkscape:snap-global="true" inkscape:snap-midpoints="true">
    <sodipodi:guide position="70.348236,78.132975" orientation="0.54637762,-0.83753895" id="guide7888"/>
    <inkscape:grid type="xygrid" id="grid21637"/>
    <sodipodi:guide position="69.297511,68.292395" orientation="-0.83752907,-0.54639276" id="guide23926"/>
    <sodipodi:guide position="57.043005,58.803923" orientation="-0.8375291,-0.54639272" id="guide6906"/>
    <sodipodi:guide position="82.919201,75.685209" orientation="-0.83752902,-0.54639284" id="guide7089"/>
    <sodipodi:guide position="53.612435,56.972518" orientation="0.54637768,-0.83753891" id="guide9522" inkscape:label="" inkscape:locked="false" inkscape:color="rgb(0,0,255)"/>
    <sodipodi:guide position="83.455313,91.499886" orientation="0.85204536,0.52346796" id="guide12791"/>
    <sodipodi:guide position="37.244579,68.944978" orientation="0.86141592,0.50790021" id="guide12931" inkscape:label="" inkscape:locked="false" inkscape:color="rgb(0,0,255)"/>
    <sodipodi:guide position="72.814914,67.076405" orientation="-0.83752909,-0.54639274" id="guide25074" inkscape:label="" inkscape:locked="false" inkscape:color="rgb(0,0,255)"/>
    <sodipodi:guide position="46.889555,52.586773" orientation="-0.83752909,-0.54639274" id="guide26767" inkscape:label="" inkscape:locked="false" inkscape:color="rgb(0,0,255)"/>
    <sodipodi:guide position="83.455313,91.499886" orientation="-0.83752909,-0.54639274" id="guide26798" inkscape:label="" inkscape:locked="false" inkscape:color="rgb(0,0,255)"/>
    <sodipodi:guide position="46.889555,52.586773" orientation="-0.61216155,0.79073272" id="guide27003"/>
    <sodipodi:guide position="37.31157,68.83136" orientation="-0.4409262,0.89754336" id="guide27063" inkscape:label="" inkscape:locked="false" inkscape:color="rgb(0,0,255)"/>
    <sodipodi:guide position="60.439686,86.045569" orientation="0.54637768,-0.83753891" id="guide27649" inkscape:label="" inkscape:locked="false" inkscape:color="rgb(0,0,255)"/>
    <sodipodi:guide position="73.287085,66.352645" orientation="0.54637768,-0.83753891" id="guide27651" inkscape:label="" inkscape:locked="false" inkscape:color="rgb(0,0,255)"/>
  </sodipodi:namedview>
  <defs id="defs2">
    <inkscape:path-effect effect="powerclip" id="path-effect11378" is_visible="true" lpeversion="1" inverse="true" flatten="false" hide_clip="false" message="Use fill-rule evenodd on &lt;b&gt;fill and stroke&lt;/b&gt; dialog if no flatten result after convert clip to paths."/>
    <inkscape:path-effect effect="skeletal" id="path-effect9303" is_visible="true" lpeversion="1" pattern="M 0,0 H 1" copytype="single_stretched" prop_scale="1" scale_y_rel="false" spacing="0" normal_offset="0" tang_offset="0" prop_units="false" vertical_pattern="false" hide_knot="false" fuse_tolerance="0"/>
    <inkscape:path-effect effect="powerclip" id="path-effect9088" is_visible="true" lpeversion="1" inverse="true" flatten="false" hide_clip="false" message="Use fill-rule evenodd on &lt;b&gt;fill and stroke&lt;/b&gt; dialog if no flatten result after convert clip to paths."/>
    <clipPath clipPathUnits="userSpaceOnUse" id="clipPath11374">
      <path style="display:none;fill:none;stroke:#000000;stroke-width:1.07577px;stroke-linecap:butt;stroke-linejoin:miter;stroke-opacity:1" d="m 210.35722,152.28561 c 9.20669,24.74247 12.25055,45.84703 10.90727,63.00317 -14.60432,7.80783 -39.94918,13.61335 -59.89596,13.61055 l 20.57473,11.87932 c 21.41944,-1.27838 37.97799,-6.26765 56.02024,-15.84829 1.88522,-21.15909 -0.39205,-39.47615 -7.03157,-60.76543 z" id="path11376" sodipodi:nodetypes="ccccccc"/>
      <path id="lpe_path-effect11378" style="display:block;fill:none;stroke:#000000;stroke-width:1.07577px;stroke-linecap:butt;stroke-linejoin:miter;stroke-opacity:1" class="powerclip" d="M 151.24935,161.85908 H 307.58831 V 291.1319 H 151.24935 Z m 59.10787,-9.57347 c 9.20669,24.74247 12.25055,45.84703 10.90727,63.00317 -14.60432,7.80783 -39.94918,13.61335 -59.89596,13.61055 l 20.57473,11.87932 c 21.41944,-1.27838 37.97799,-6.26765 56.02024,-15.84829 1.88522,-21.15909 -0.39205,-39.47615 -7.03157,-60.76543 z"/>
    </clipPath>
  </defs>
  <g inkscape:groupmode="layer" id="layer6" inkscape:label="Circle" sodipodi:insensitive="true">
    <circle style="fill:#403d48;fill-opacity:1;stroke-width:0;stroke-linecap:square;stroke-linejoin:round;stroke-miterlimit:0;paint-order:fill markers stroke" id="path885" cx="67.733337" cy="67.733337" r="67.733337"/>
  </g>
  <g inkscape:label="Base" inkscape:groupmode="layer" id="layer1" style="display:inline">
    <path style="fill:#b72650;fill-opacity:1;stroke-width:0;stroke-linecap:square;stroke-linejoin:round;stroke-miterlimit:0;paint-order:fill markers stroke" d="m 44.064319,76.301363 c -4.297864,-6.588168 -13.122734,-8.444827 -19.7109,-4.146966 -6.588168,4.297865 -8.444827,13.122736 -4.146967,19.710907 4.297866,6.588166 13.122739,8.444816 19.710904,4.146955 6.588167,-4.297859 8.444826,-13.12273 4.146963,-19.710896 z" id="path8365" sodipodi:nodetypes="sssss"/>
    <path id="path8363" style="fill:#b72650;fill-opacity:1;stroke-width:0;stroke-linecap:square;stroke-linejoin:round;stroke-miterlimit:0;paint-order:fill markers stroke" d="m 83.796037,54.515394 c 0,0 -6.282408,23.620219 -7.315163,24.289109 -1.032754,0.668889 -25.225214,0.902676 -25.225214,0.902676 0,0 -4.06748,25.053571 -2.586856,27.692321 1.480623,2.63876 45.750343,13.00682 54.859456,12.86416 3.40109,-6.69607 14.92331,-49.605842 13.99442,-51.466091 C 116.59377,66.937322 83.796037,54.515394 83.796037,54.515394 Z m 9.433725,14.460329 c 4.606697,0.714792 10.046968,3.164411 13.979378,5.689837 -0.78961,9.980897 -6.1762,27.2094 -9.966963,35.96257 -11.442715,-0.20147 -28.783159,-4.51081 -39.193973,-9.5542 -0.003,-2.342628 0.265242,-7.470367 0.87781,-11.279857 6.33712,0.523638 18.539102,1.170453 24.921105,0.301656 3.383789,-5.237669 7.192506,-15.495664 9.382643,-21.120006 z" sodipodi:nodetypes="cscscscccccccc"/>
    <path style="fill:#b72650;fill-opacity:1;stroke-width:0;stroke-linecap:square;stroke-linejoin:round;stroke-miterlimit:0;paint-order:fill markers stroke" d="M 34.723212,15.201558 C 31.98633,19.96558 24.5894,58.753855 25.265152,60.002665 c 0.675751,1.248812 18.101423,7.61186 18.101423,7.61186 0,0 9.546582,-22.598968 10.455996,-23.136831 0.909414,-0.537863 26.339492,4.467421 26.339492,4.467421 0,0 4.328236,-19.867531 3.250787,-21.704553 -1.077449,-1.83702 -42.486276,-11.96029 -48.689638,-12.039004 z" id="rect846" sodipodi:nodetypes="cscscsc"/>
    <path id="path10342" style="fill:#b72650;stroke-width:0.264508px" d="m 95.585657,74.97198 c -1.496707,5.38317 -5.259024,14.509557 -8.340156,20.332903 -6.162272,0.184866 -17.464141,-0.50877 -23.121652,-1.250408 -0.309847,1.429875 -0.578519,2.779708 -0.792743,4.014488 8.351669,3.615217 21.725036,6.557347 30.446841,7.249067 3.080411,-7.548505 6.877783,-20.191629 8.094993,-27.936575 -1.83298,-0.88133 -4.215765,-1.778539 -6.287283,-2.409475 z" sodipodi:nodetypes="ccccccc"/>
  </g>
</svg>